/* XPM */
static char * exit_xpm[] = {
"60 32 2 1",
" 	c None",
".	c #FFFFFF",
"............    ....    ....    ............    ............",
"............    ....    ....    ............    ............",
"............    ....    ....    ............    ............",
"............    ....    ....    ............    ............",
"....            ....    ....        ....            ....    ",
"....            ....    ....        ....            ....    ",
"....            ....    ....        ....            ....    ",
"....            ....    ....        ....            ....    ",
"....            ....    ....        ....            ....    ",
"....            ....    ....        ....            ....    ",
"....            ....    ....        ....            ....    ",
"....            ....    ....        ....            ....    ",
"....                ....            ....            ....    ",
"....                ....            ....            ....    ",
"............        ....            ....            ....    ",
"............        ....            ....            ....    ",
"............        ....            ....            ....    ",
"............        ....            ....            ....    ",
"....                ....            ....            ....    ",
"....                ....            ....            ....    ",
"....            ....    ....        ....            ....    ",
"....            ....    ....        ....            ....    ",
"....            ....    ....        ....            ....    ",
"....            ....    ....        ....            ....    ",
"....            ....    ....        ....            ....    ",
"....            ....    ....        ....            ....    ",
"....            ....    ....        ....            ....    ",
"....            ....    ....        ....            ....    ",
"............    ....    ....    ............        ....    ",
"............    ....    ....    ............        ....    ",
"............    ....    ....    ............        ....    ",
"............    ....    ....    ............        ....    "};
