/* XPM */
static xpm_row_t const leaderboard_xpm[] = {
"172 32 2 1",
" 	c None",
".	c #FFFFFF",
"....            ............    ............    ........        ............    ............    ........        ............    ............    ............    ........    ",
"....            ............    ............    ........        ............    ............    ........        ............    ............    ............    ........    ",
"....            ............    ............    ........        ............    ............    ........        ............    ............    ............    ........    ",
"....            ............    ............    ........        ............    ............    ........        ............    ............    ............    ........    ",
"....            ....            ....    ....    ....    ....    ....            ....    ....    ....    ....    ....    ....    ....    ....    ....    ....    ....    ....",
"....            ....            ....    ....    ....    ....    ....            ....    ....    ....    ....    ....    ....    ....    ....    ....    ....    ....    ....",
"....            ....            ....    ....    ....    ....    ....            ....    ....    ....    ....    ....    ....    ....    ....    ....    ....    ....    ....",
"....            ....            ....    ....    ....    ....    ....            ....    ....    ....    ....    ....    ....    ....    ....    ....    ....    ....    ....",
"....            ....            ....    ....    ....    ....    ....            ....    ....    ....    ....    ....    ....    ....    ....    ....    ....    ....    ....",
"....            ....            ....    ....    ....    ....    ....            ....    ....    ....    ....    ....    ....    ....    ....    ....    ....    ....    ....",
"....            ....            ....    ....    ....    ....    ....            ....    ....    ....    ....    ....    ....    ....    ....    ....    ....    ....    ....",
"....            ....            ....    ....    ....    ....    ....            ....    ....    ....    ....    ....    ....    ....    ....    ....    ....    ....    ....",
"....            ....            ....    ....    ....    ....    ....            ....    ....    ....    ....    ....    ....    ....    ....    ....    ....    ....    ....",
"....            ....            ....    ....    ....    ....    ....            ....    ....    ....    ....    ....    ....    ....    ....    ....    ....    ....    ....",
"....            ............    ............    ....    ....    ............    ........        ........        ....    ....    ............    ........        ....    ....",
"....            ............    ............    ....    ....    ............    ........        ........        ....    ....    ............    ........        ....    ....",
"....            ............    ............    ....    ....    ............    ........        ........        ....    ....    ............    ........        ....    ....",
"....            ............    ............    ....    ....    ............    ........        ........        ....    ....    ............    ........        ....    ....",
"....            ....            ....    ....    ....    ....    ....            ....    ....    ....    ....    ....    ....    ....    ....    ....    ....    ....    ....",
"....            ....            ....    ....    ....    ....    ....            ....    ....    ....    ....    ....    ....    ....    ....    ....    ....    ....    ....",
"....            ....            ....    ....    ....    ....    ....            ....    ....    ....    ....    ....    ....    ....    ....    ....    ....    ....    ....",
"....            ....            ....    ....    ....    ....    ....            ....    ....    ....    ....    ....    ....    ....    ....    ....    ....    ....    ....",
"....            ....            ....    ....    ....    ....    ....            ....    ....    ....    ....    ....    ....    ....    ....    ....    ....    ....    ....",
"....            ....            ....    ....    ....    ....    ....            ....    ....    ....    ....    ....    ....    ....    ....    ....    ....    ....    ....",
"....            ....            ....    ....    ....    ....    ....            ....    ....    ....    ....    ....    ....    ....    ....    ....    ....    ....    ....",
"....            ....            ....    ....    ....    ....    ....            ....    ....    ....    ....    ....    ....    ....    ....    ....    ....    ....    ....",
"....            ....            ....    ....    ....    ....    ....            ....    ....    ....    ....    ....    ....    ....    ....    ....    ....    ....    ....",
"....            ....            ....    ....    ....    ....    ....            ....    ....    ....    ....    ....    ....    ....    ....    ....    ....    ....    ....",
"............    ............    ....    ....    ........        ............    ....    ....    ........        ............    ....    ....    ....    ....    ........    ",
"............    ............    ....    ....    ........        ............    ....    ....    ........        ............    ....    ....    ....    ....    ........    ",
"............    ............    ....    ....    ........        ............    ....    ....    ........        ............    ....    ....    ....    ....    ........    ",
"............    ............    ....    ....    ........        ............    ....    ....    ........        ............    ....    ....    ....    ....    ........    "};
