/* XPM */
static xpm_row_t const play_highlight_xpm[] = {
"60 32 2 1",
" 	c None",
".	c #FFFF00",
"............    ....            ............    ....    ....",
"............    ....            ............    ....    ....",
"............    ....            ............    ....    ....",
"............    ....            ............    ....    ....",
"....    ....    ....            ....    ....    ....    ....",
"....    ....    ....            ....    ....    ....    ....",
"....    ....    ....            ....    ....    ....    ....",
"....    ....    ....            ....    ....    ....    ....",
"....    ....    ....            ....    ....    ....    ....",
"....    ....    ....            ....    ....    ....    ....",
"....    ....    ....            ....    ....    ....    ....",
"....    ....    ....            ....    ....    ....    ....",
"....    ....    ....            ....    ....    ....    ....",
"....    ....    ....            ....    ....    ....    ....",
"....    ....    ....            ....    ....    ....    ....",
"....    ....    ....            ....    ....    ....    ....",
"............    ....            ............    ....    ....",
"............    ....            ............    ....    ....",
"............    ....            ............    ....    ....",
"............    ....            ............    ....    ....",
"....            ....            ....    ....        ....    ",
"....            ....            ....    ....        ....    ",
"....            ....            ....    ....        ....    ",
"....            ....            ....    ....        ....    ",
"....            ....            ....    ....        ....    ",
"....            ....            ....    ....        ....    ",
"....            ....            ....    ....        ....    ",
"....            ....            ....    ....        ....    ",
"....            ............    ....    ....        ....    ",
"....            ............    ....    ....        ....    ",
"....            ............    ....    ....        ....    ",
"....            ............    ....    ....        ....    "};
