/* XPM */
<<<<<<< proj/src/img/menu/play.xpm
static xpm_row_t const play_xpm[] = {
"60 32 2 1",
" 	c None",
".	c #FFFFFF",
"............    ....            ............    ....    ....",
"............    ....            ............    ....    ....",
"............    ....            ............    ....    ....",
"............    ....            ............    ....    ....",
"....    ....    ....            ....    ....    ....    ....",
"....    ....    ....            ....    ....    ....    ....",
"....    ....    ....            ....    ....    ....    ....",
"....    ....    ....            ....    ....    ....    ....",
"....    ....    ....            ....    ....    ....    ....",
"....    ....    ....            ....    ....    ....    ....",
"....    ....    ....            ....    ....    ....    ....",
"....    ....    ....            ....    ....    ....    ....",
"....    ....    ....            ....    ....    ....    ....",
"....    ....    ....            ....    ....    ....    ....",
"....    ....    ....            ....    ....    ....    ....",
"....    ....    ....            ....    ....    ....    ....",
"............    ....            ............    ....    ....",
"............    ....            ............    ....    ....",
"............    ....            ............    ....    ....",
"............    ....            ............    ....    ....",
"....            ....            ....    ....        ....    ",
"....            ....            ....    ....        ....    ",
"....            ....            ....    ....        ....    ",
"....            ....            ....    ....        ....    ",
"....            ....            ....    ....        ....    ",
"....            ....            ....    ....        ....    ",
"....            ....            ....    ....        ....    ",
"....            ....            ....    ....        ....    ",
"....            ............    ....    ....        ....    ",
"....            ............    ....    ....        ....    ",
"....            ............    ....    ....        ....    ",
"....            ............    ....    ....        ....    "};
