/* XPM */
static xpm_row_t const play_xpm[] = {
"30 16 2 1",
" 	c None",
".	c #FFFFFF",
"......  ..      ......  ..  ..",
"......  ..      ......  ..  ..",
"..  ..  ..      ..  ..  ..  ..",
"..  ..  ..      ..  ..  ..  ..",
"..  ..  ..      ..  ..  ..  ..",
"..  ..  ..      ..  ..  ..  ..",
"..  ..  ..      ..  ..  ..  ..",
"..  ..  ..      ..  ..  ..  ..",
"......  ..      ......  ..  ..",
"......  ..      ......  ..  ..",
"..      ..      ..  ..    ..  ",
"..      ..      ..  ..    ..  ",
"..      ..      ..  ..    ..  ",
"..      ..      ..  ..    ..  ",
"..      ......  ..  ..    ..  ",
"..      ......  ..  ..    ..  "};
