/* XPM */
static char * airship_projectile_xpm[] = {
"10 18 5 1",
" 	c None",
".	c #FF8905",
"+	c #F9FFFF",
"@	c #FCF158",
"#	c #A42E1A",
"    ..    ",
"    ..    ",
"  ..++..  ",
"  ..++..  ",
"..++++++..",
"..++++++..",
"..@@++@@..",
"..@@++@@..",
"##@@@@@@##",
"##@@@@@@##",
"  ..@@..  ",
"  ..@@..  ",
"  ##..##  ",
"  ##..##  ",
"    ..    ",
"    ..    ",
"    ##    ",
"    ##    "};
