/* XPM */
static xpm_row_t const airship_xpm[] = {
"46 42 21 1",
" 	c None",
".	c #BFBAF0",
"+	c #6B84CD",
"@	c #5E4195",
"#	c #89C7DF",
"$	c #5E75C3",
"%	c #755AC1",
"&	c #837CC2",
"*	c #A9A3D3",
"=	c #847DC3",
"-	c #482B65",
";	c #703A92",
">	c #543175",
",	c #8B0975",
"'	c #FF7261",
")	c #FE9867",
"!	c #FE7161",
"~	c #370762",
"{	c #EF3A65",
"]	c #370B44",
"^	c #775EC4",
"                      ..                      ",
"                      ..                      ",
"                    ..++@@                    ",
"                    ..++@@                    ",
"                  ..##++$$@@                  ",
"                  ..##++$$@@                  ",
"                  ..##++$$%%                  ",
"                  ..##++$$%%                  ",
"                ..&&****=&&&%%                ",
"                ..&&****&&&&%%                ",
"            ..************&&&&&&%%            ",
"            ..************&&&&&&%%            ",
"          ..******************&&&&%%          ",
"          ..******************&&&&%%          ",
"        ..****&&&&****&&****&&****&&%%        ",
"        ..****&&&&****&&****&&****&&%%        ",
"      ..****&&--..&&**&&**&&%%--..**&&%%      ",
"      ..****&&--..&&**&&**&&%%--..**&&%%      ",
"    ..****&&;;>>--..****&&%%;;>>--..**&&%%    ",
"    ..****&&;;>>--..****&&%%;;>>--..**&&%%    ",
"  ..****&&,,''))''..&&**&&@@''))'',,..**&&%%  ",
"  ..****&&,,!!))''..&&**&&@@''))'',,..**&&%%  ",
"..&&&&&&~~,,{{''{{]]..**&&]]{{''{{,,~~..**&&%%",
"..&&&&&&~~,,{{''{{]]..**&&]]{{''{{,,~~..**&&%%",
"          ~~,,{{,,;;..&&^^--,,{{,,~~          ",
"          ~~,,{{,,;;..&&^^--,,{{,,~~          ",
"            ~~,,;;>>..&&@@>>--~~~~            ",
"            ~~,,;;>>..&&@@>>--~~~~            ",
"              ;;>>>>--%%;;>>>>--              ",
"              ;;>>>>--%%;;>>>>--              ",
"            ;;>>>>--))@@));;>>>>--            ",
"            ;;>>>>--))@@));;>>>>--            ",
"            ;;----{{''))''{{;;;;--            ",
"            ;;----{{''))''{{;;;;--            ",
"            --    ,,{{''{{,,    --            ",
"            --    ,,{{''{{,,    --            ",
"                  ~~,,{{,,~~                  ",
"                  ~~,,{{,,~~                  ",
"                    ~~,,~~                    ",
"                    ~~,,~~                    ",
"                      ~~                      ",
"                      ~~                      "};
