/* XPM */
static xpm_row_t const stage2_xpm[] = {
"44 32 4 1",
" 	c None",
".	c #A9A3D3",
"+	c #837CC2",
"@	c #755AC1",
"          ........              ++          ",
"          ........              ++          ",
"      ..  ......                ++++        ",
"      ..  ......                ++++        ",
"    ..    ........                ++        ",
"    ..    ........     ...        ++        ",
"  ..  ..  ..  ..       .......      ++++    ",
"  ..  ..  ..  ..    ..........      ++++    ",
"......      ..      ..........      ++++++  ",
"......      ..      ..........      ++++++  ",
"....          ....    ..........    ..++++  ",
"....          ....    ..........    ..++++  ",
"..            ..        ..........  ..      ",
"..            ..        ..  ......  ..      ",
"......          ..          ..........      ",
"......          ..          ..........      ",
"  ..  ..      ............  ......          ",
"  ..  ..      ............  ......          ",
"  ....  ..  ..  ........  ....  ..          ",
"  ....  ..  ..  ........  ....  ..          ",
"............................      ..      @@",
"............................      ..      @@",
"....  ....................              ++  ",
"....  ....................              ++  ",
"    ........++                        ++  @@",
"    ........++                        ++  @@",
"  ........++                                ",
"  ........++                                ",
"......                                      ",
"......                                      ",
"  ....                            ..        ",
"  ....                            ..        "};
