/* XPM */
static char * stage3_xpm[] = {
"44 32 4 1",
" 	c None",
".	c #A9A3D3",
"+	c #837CC2",
"@	c #755AC1",
"                                            ",
"                                            ",
"      ..      ..                            ",
"      ..      ..                            ",
"    ..    ........                          ",
"    ..    ........                          ",
"  ..  ..  ..  ..                    ++++    ",
"  ..  ..  ..  ..                    ++++    ",
"  ....      ..                        ++++  ",
"  ....      ..                        ++++  ",
"              ....      ....  ..    ..  ++  ",
"              ....      ....  ..    ..  ++  ",
"              ..            ......          ",
"              ..            ......          ",
"                ..            ......        ",
"                ..            ......        ",
"      ..      ............  ......          ",
"      ..      ............  ......          ",
"        ..  ..  ..  ....  ....  ..          ",
"        ..  ..  ..  ....  ....  ..          ",
"..      ..........      ....      ..      @@",
"..      ..........      ....      ..      @@",
"....  ..      ..        ..              ++  ",
"....  ..      ..        ..              ++  ",
"    ....                              ++  @@",
"    ....                              ++  @@",
"  ........                                  ",
"  ........                                  ",
"....                                        ",
"....                                        ",
"  ....                            ..        ",
"  ....                            ..        "};
