/* XPM */
static char * alien_shoot_xpm[] = {
"6 26 5 1",
" 	c None",
".	c #FE9867",
"+	c #FF756C",
"@	c #FF336A",
"#	c #8B0975",
"......",
"......",
"......",
"......",
"......",
"......",
"++..++",
"++..++",
"++++++",
"++++++",
"++++++",
"++++++",
"@@++@@",
"@@++@@",
"@@@@@@",
"@@@@@@",
"@@@@@@",
"@@@@@@",
"##@@##",
"##@@##",
"######",
"######",
"######",
"######",
"  ##  ",
"  ##  "};
