/* XPM */
static xpm_row_t const alien3_xpm[] = {
"38 40 18 1",
" 	c None",
".	c #BFBAF0",
"+	c #543175",
"@	c #FFFFFF",
"#	c #A7E007",
"$	c #84BF14",
"%	c #699C18",
"&	c #FEFEFD",
"*	c #FEFFFE",
"=	c #391A44",
"-	c #370B44",
";	c #3C1E47",
">	c #A9A3D3",
",	c #755AC1",
"'	c #5D4094",
")	c #837CC2",
"!	c #73A715",
"~	c #72A615",
"            ..............            ",
"            ..............            ",
"        ....++++++++++++++....        ",
"        ....++++++++++++++....        ",
"      ..@@++++++++++++++++++++..      ",
"      ..@@++++++++++++++++++++..      ",
"    ..@@++++++##$$$$%%%%++++++++..    ",
"    ..@@++++++##$$$$%%%%++++++++..    ",
"  ..++++++++##$$$$$$$$$$%%++++++++..  ",
"  ..++++++++##$$$$$$$$$$%%++++++++..  ",
"  ..++++++##$$$$$$@@@&$$$$%%++++++..  ",
"  ..++++++##$$$$$$@@@@$$$$%%++++++..  ",
"..++++++##$$$$$$@@@@@@@@$$$$%%++++++..",
"..++++++##$$$$$$@@*@*@*@$$$$%%++++++..",
"..++++++##$$$$@@&&=-==&@&@$$%%++++++..",
"..++++++##$$$$@@@@----@@@@$$%%++++++..",
"..++++##$$$$$$@@@@==--&&&&$$%%%%++++..",
"..++++##$$$$$$&&@@;-==&&&&$$%%%%++++..",
"..++++##$$$$$$$$&@&&&@&&$$$$%%%%++++..",
"..++++##$$$$$$$$&@@@*@&&$$$$%%%%++++..",
"  ..++++##$$$$$$$$@@&&$$$$%%%%++++..  ",
"  ..++++##$$$$$$$$@@&&$$$$%%%%++++..  ",
"    ..++++##$$$$$$$$$$$$%%%%++++..    ",
"    ..++++##$$$$$$$$$$$$%%%%++++..    ",
"      ..........................      ",
"      ..........................      ",
"  >>,,''..%%>>%%>>%%>>%%>>%%>>%%)),,''",
"  >>,,''..%%>>%%>>%%>>%%>>%%>>%%)),,''",
"    ####%%,,''%%''%%''%%''%%''%%!!!!  ",
"    ####%%,,''%%''%%''%%''%%''%%!!!!  ",
"  ##  >>)),,%%,,,,##,,$$,,))%%)),,  ##",
"  ##  >>)),,%%,,,,##,,$$,,))%%)),,  ##",
"  ##      ##      ##    ##    ##    ~~",
"  ##      ##      ##    ##    ##    ~~",
"    ##  ##      ##      $$    ~~  ~~  ",
"    ##  ##      ##      $$    ~~  ~~  ",
"                ##      $$    ~~      ",
"                ##      $$    ~~      ",
"                  ##  $$              ",
"                  ##  $$              "};
