/* XPM */
static xpm_row_t const alien1_xpm[] = {
"36 38 35 1",
" 	c None",
".	c #BFBAF0",
"+	c #543175",
"@	c #FEFEFE",
"#	c #FBE009",
"$	c #F2C60F",
"%	c #DD980C",
"&	c #F1C50F",
"*	c #DD980D",
"=	c #FEFDFC",
"-	c #DE990D",
";	c #FDFDFD",
">	c #FDFAF5",
",	c #380C45",
"'	c #401C45",
")	c #FEFEFD",
"!	c #FADF08",
"~	c #F1C50E",
"{	c #DC970D",
"]	c #3C1545",
"^	c #FADF09",
"/	c #A9A3D3",
"(	c #755AC1",
"_	c #5E4195",
":	c #FE4EC2",
"<	c #FE236A",
"[	c #FD236A",
"}	c #837CC2",
"|	c #FD4DC1",
"1	c #FF4FC3",
"2	c #FF236A",
"3	c #FD2369",
"4	c #AB97F5",
"5	c #AC98F5",
"6	c #703A92",
"            ............            ",
"            ............            ",
"        ....++++++++++++....        ",
"        ....++++++++++++....        ",
"      ..@@++++##$$$$%%++++++..      ",
"      ..@@++++##&$$$%%++++++..      ",
"    ..@@++++##$$&$$$$&%%++++++..    ",
"    ..@@++++##$$&$$$$$%%++++++..    ",
"  ..++++++##$$$$$$$$$$$$%*++++++..  ",
"  ..++++++##$$$$$$$$$$$$%*++++++..  ",
"  ..++++##$$$$@@===@==$$$&--++++..  ",
"  ..++++##$$$$@@===@==$$$$--++++..  ",
"..++++++##$$;@>@,,''@@;;&$--++++++..",
"..++++++##$$@@@@,,''@@;;&$--++++++..",
"..++++++##$$$$@@@@@)@@$$&&--++++++..",
"..++++++##$$$$)@=)@@@@$$&&--++++++..",
"..++!!$$##$$$$$$$$$$$$$$&&*-~~{{++..",
"..++!!$$##$$$$$$$$$$$$$$$&--~~--++..",
"..++++--##$$$$@@@@==@@$$&&--%%++++..",
"..++++--##$$$$@@@@==)@$$&&--%%++++..",
"  ..++++##$$=@@@],''=@@@$&**++++..  ",
"  ..++++##$$=@@@],''@@@@$$**++++..  ",
"    ..++##$$$$@@@@@@@@$$$$**++..    ",
"    ..++^#$$$$@@@@==@=$$$$**++..    ",
"      ..##$$$$$$$$$$$$$$$$**..      ",
"      ..##$$$$$$$$$$$$$$$$**..      ",
"    ..//....................((__    ",
"    ..//....................((__    ",
"  ..////::<[////////}}}}}}|122((((  ",
"  ..////::2<////////}}}}}}|133((((  ",
"      ....//////1:2245}}}}((((      ",
"      ....//////1:3345}}}}((((      ",
"          66..////}}}}((66          ",
"          66..////}}}}((66          ",
"        66        66      66        ",
"        66        66      66        ",
"      66          66        66      ",
"      66          66        66      "};
