/* XPM */
static char * alien_explosion_xpm[] = {
"46 42 9 1",
" 	c None",
".	c #163037",
"+	c #301C22",
"@	c #A42E1A",
"#	c #FE870A",
"$	c #FFEF57",
"%	c #FCFEFF",
"&	c #FCFEFE",
"*	c #A5321B",
"              ..            ++                ",
"              ..            ++                ",
"    @@            ++    ..                    ",
"    @@            ++    ..                    ",
"                ..                    @@      ",
"                ..                    @@      ",
"                @@  ++      @@                ",
"                @@  ++      @@                ",
"        @@  @@        @@  @@    ..            ",
"        @@  @@        @@  @@    ..            ",
"              ..      ..  ##                  ",
"              ..      ..  ##                  ",
"            $$  ##    ##      @@              ",
"            $$  ##    ##      @@              ",
"@@        ##..##    ##  $$  ##  ++      ..    ",
"@@        ##..##    ##  $$  ##  ++      ..    ",
"        ..    $$  $$$$$$##$$..##  ++  ++      ",
"        ..    $$  $$$$$$##$$..##  ++  ++      ",
"    ..    ##    $$$$%%$$$$  ##                ",
"    ..    ##    $$$$%%$$$$  ##                ",
"              ..$$%%%%%%$$  ..##            @@",
"              ..$$%%%%%%$$  ..##            @@",
"        ..####$$##$$%%$$$$$$      ..          ",
"        ..####$$##$$%&$$$$$$      ..          ",
"      ++          @@$$$$##....##@@      ++    ",
"      ++          @*$$$$##....##@@      ++    ",
"..      ++  ##  $$  $$  $$##  ##              ",
"..      ++  ##  $$  $$  $$##  ##              ",
"      @@..  $$##..  ##    ##        ..        ",
"      @@..  $$##..  ##    ##        ..        ",
"                    ##            @@          ",
"                    ##            @@          ",
"        @@    ..                              ",
"        @@    ..                              ",
"            @@      @@      ..                ",
"            @@      @@      ..                ",
"                              ++              ",
"                              ++              ",
"  @@                ..    ++                  ",
"  @@                ..    ++                  ",
"                  ++              @@          ",
"                  ++              @@          "};
