/* XPM */
static xpm_row_t const alien2_xpm[] = {
"40 36 24 1",
" 	c None",
".	c #BFBAF0",
"+	c #543175",
"@	c #FFFFFF",
"#	c #FBE009",
"$	c #01B7FF",
"%	c #0284DC",
"&	c #0261CD",
"*	c #F2C60F",
"=	c #DE990D",
"-	c #FDFEFF",
";	c #FEFEFF",
">	c #039DF7",
",	c #370B44",
"'	c #371349",
")	c #FEFFFF",
"!	c #BFBAEF",
"~	c #BEB9EF",
"{	c #837CC2",
"]	c #5E4195",
"^	c #A9A3D3",
"/	c #755AC1",
"(	c #703A92",
"_	c #482B65",
"            ................            ",
"            ................            ",
"        ....++++++++++++++++....        ",
"        ....++++++++++++++++....        ",
"      ..@@++++++++++++++++++++++..      ",
"      ..@@++++++++++++++++++++++..      ",
"    ..@@##++++++$$%%%%&&++++++##++..    ",
"    ..@@##++++++$$%%%%&&++++++##++..    ",
"    ..++**==$$%%%%%%%%%%%%&&##**++..    ",
"    ..++**==$$%%%%%%%%%%%%&&##**++..    ",
"  ..++++==$$%%%%%%@@-@-@%%%%&&==++++..  ",
"  ..++++==$$%%%%%%@@-@;@%%%%&&==++++..  ",
"  ..++++>>%%%%%%---@@@;@--%%%%&&++++..  ",
"  ..++++>>%%%%%%@@--@@@---%%%%&&++++..  ",
"  ..++++$$%%%%%%@@,,,'''@-%%%%&&++++..  ",
"  ..++++$$%%%%%%@@,,,'''--%%%%&&++++..  ",
"  ..++++$$%%%%%%@@;;@@@;;@%%%%&&++++..  ",
"  ..++++$$%%%%%%@@@--@@@-;%%%%&&++++..  ",
"  ..++++++$$%%%%%%-@-@;@%%%%&&++++++..  ",
"  ..++++++$$%%%%%%@)-@-;%%%%&&++++++..  ",
"    ..++++$$%%%%%%%%%%%%%%%%&&++++!~    ",
"    ..++++$$%%%%%%%%%%%%%%%%&&++++..    ",
"      ..++++$$%%%%%%%%%%%%&&++++..      ",
"      ..++++$$%%%%%%%%%%%%&&++++..      ",
"        ..++++$$%%%%%%%%&&++++..        ",
"        ..++++$$%%%%%%%%&&++++..        ",
"      ..{{....................]]]]      ",
"      ..{{....................]]]]      ",
"    ..^^^^^^^^^^^^^^^^^^^^{{{{{{//]]    ",
"    ..^^^^^^^^^^^^^^^^^^^^{{{{{{//]]    ",
"  ((++{{^^^^^^^^{{((++^^^^^^{{//]]++__  ",
"  ((++{{^^^^^^^^{{((++^^^^^^{{//]]++__  ",
"((++____{{^^^^{{//((__{{{{////]]++((++__",
"((++____{{^^^^{{//((__{{{{////]]++((++__",
"++__              ((__              ((__",
"++__              ((__              ((__"};
