/* XPM */
static char * backToMain_xpm[] = {
"172 32 2 1",
" 	c None",
".	c #FFFFFF",
"........        ............    ............    ....    ....        ............    ............        ....          ....    ............    ............    ....      ....",
"........        ............    ............    ....    ....        ............    ............        ......      ......    ............    ............    ....      ....",
"........        ............    ............    ....    ....        ............    ............        ......      ......    ............    ............    ......    ....",
"........        ............    ............    ....    ....        ............    ............        ........  ........    ............    ............    ......    ....",
"....    ....    ....    ....    ....            ....    ....            ....        ....    ....        ........  ........    ....    ....        ....        ......    ....",
"....    ....    ....    ....    ....            ....    ....            ....        ....    ....        ..................    ....    ....        ....        ......    ....",
"....    ....    ....    ....    ....            ....    ....            ....        ....    ....        ..................    ....    ....        ....        ......    ....",
"....    ....    ....    ....    ....            ....    ....            ....        ....    ....        ....  ......  ....    ....    ....        ....        ......    ....",
"....    ....    ....    ....    ....            ....    ....            ....        ....    ....        ....  ......  ....    ....    ....        ....        ......    ....",
"....    ....    ....    ....    ....            ....    ....            ....        ....    ....        ....  ......  ....    ....    ....        ....        ........  ....",
"....    ....    ....    ....    ....            ....    ....            ....        ....    ....        ....    ..    ....    ....    ....        ....        ........  ....",
"....    ....    ....    ....    ....            ....    ....            ....        ....    ....        ....    ..    ....    ....    ....        ....        ........  ....",
"....    ....    ....    ....    ....            ........                ....        ....    ....        ....          ....    ....    ....        ....        ........  ....",
"....    ....    ....    ....    ....            ........                ....        ....    ....        ....          ....    ....    ....        ....        ........  ....",
"........        ............    ....            ........                ....        ....    ....        ....          ....    ............        ....        ........  ....",
"........        ............    ....            ........                ....        ....    ....        ....          ....    ............        ....        ........  ....",
"........        ............    ....            ....    ....            ....        ....    ....        ....          ....    ............        ....        ....  ........",
"........        ............    ....            ....    ....            ....        ....    ....        ....          ....    ............        ....        ....  ........",
"....    ....    ....    ....    ....            ....    ....            ....        ....    ....        ....          ....    ....    ....        ....        ....  ........",
"....    ....    ....    ....    ....            ....    ....            ....        ....    ....        ....          ....    ....    ....        ....        ....  ........",
"....    ....    ....    ....    ....            ....    ....            ....        ....    ....        ....          ....    ....    ....        ....        ....  ........",
"....    ....    ....    ....    ....            ....    ....            ....        ....    ....        ....          ....    ....    ....        ....        ....  ........",
"....    ....    ....    ....    ....            ....    ....            ....        ....    ....        ....          ....    ....    ....        ....        ....  ........",
"....    ....    ....    ....    ....            ....    ....            ....        ....    ....        ....          ....    ....    ....        ....        ....    ......",
"....    ....    ....    ....    ....            ....    ....            ....        ....    ....        ....          ....    ....    ....        ....        ....    ......",
"....    ....    ....    ....    ....            ....    ....            ....        ....    ....        ....          ....    ....    ....        ....        ....    ......",
"....    ....    ....    ....    ....            ....    ....            ....        ....    ....        ....          ....    ....    ....        ....        ....    ......",
"....    ....    ....    ....    ....            ....    ....            ....        ............        ....          ....    ....    ....        ....        ....    ......",
"........        ....    ....    ............    ....    ....            ....        ............        ....          ....    ....    ....    ............    ....    ......",
"........        ....    ....    ............    ....    ....            ....        ............        ....          ....    ....    ....    ............    ....    ......",
"........        ....    ....    ............    ....    ....            ....        ............        ....          ....    ....    ....    ............    ....      ....",
"........        ....    ....    ............    ....    ....            ....        ............        ....          ....    ....    ....    ............    ....      ...."};
