/* XPM */
static char * heart_nolife_xpm[] = {
"30 26 4 1",
" 	c None",
".	c #370B44",
"+	c #8B0975",
"@	c #FB559F",
"        ....      ....        ",
"        ....      ....        ",
"      ..++++..  ..++++..      ",
"      ..++++..  ..++++..      ",
"    ..++@@@@++..++@@@@++..    ",
"    ..++@@@@++..++@@@@++..    ",
"  ..++@@    @@++@@    @@++..  ",
"  ..++@@    @@++@@    @@++..  ",
"..++@@        @@        @@++..",
"..++@@        @@        @@++..",
"..++@@                  @@++..",
"..++@@                  @@++..",
"  ..++@@              @@++..  ",
"  ..++@@              @@++..  ",
"    ..++@@          @@++..    ",
"    ..++@@          @@++..    ",
"      ..++@@      @@++..      ",
"      ..++@@      @@++..      ",
"        ..++@@  @@++..        ",
"        ..++@@  @@++..        ",
"          ..++@@++..          ",
"          ..++@@++..          ",
"            ..++..            ",
"            ..++..            ",
"              ..              ",
"              ..              "};
