/* XPM */
static xpm_row_t const heart_life_xpm[] = {
"30 26 6 1",
" 	c None",
".	c #370B44",
"+	c #8B0975",
"@	c #FB559F",
"#	c #EF3A65",
"$	c #FA539B",
"        ....      ....        ",
"        ....      ....        ",
"      ..++++..  ..++++..      ",
"      ..++++..  ..++++..      ",
"    ..++@@@@++..++@@@@++..    ",
"    ..++@@@@++..++@@@@++..    ",
"  ..++@@####@@++@@####@@++..  ",
"  ..++@@####@@++@@####@@++..  ",
"..++@@########@@########@@++..",
"..++@@########$@########@@++..",
"..++@@##################@@++..",
"..++@@##################@@++..",
"  ..++@@##############@@++..  ",
"  ..++@@##############@@++..  ",
"    ..++@@##########@@++..    ",
"    ..++@@##########@@++..    ",
"      ..++@@######@@++..      ",
"      ..++@@######@@++..      ",
"        ..++@@##@@++..        ",
"        ..++@@##@@++..        ",
"          ..++@@++..          ",
"          ..++@@++..          ",
"            ..++..            ",
"            ..++..            ",
"              ..              ",
"              ..              "};
