/* XPM */
static xpm_row_t const heart_nolife_xpm[] = {
"37 32 4 1",
" 	c #0A0E30",
".	c #370B44",
"+	c #8B0975",
"@	c #FB559F",
"          .....       .....          ",
"          .....       .....          ",
"       ...+++++..   ..+++++...       ",
"       ...+++++..   ..+++++...       ",
"       ...+++++..   ..+++++...       ",
"     ..+++@@@@@++...++@@@@@+++..     ",
"     ..+++@@@@@++...++@@@@@+++..     ",
"  ...++@@@     @@+++@@     @@@++...  ",
"  ...++@@@     @@+++@@     @@@++...  ",
"  ...++@@@     @@+++@@     @@@++...  ",
"..+++@@          @@@          @@+++..",
"..+++@@          @@@          @@+++..",
"..+++@@                       @@+++..",
"..+++@@                       @@+++..",
"..+++@@                       @@+++..",
"  ...++@@@                 @@@++...  ",
"  ...++@@@                 @@@++...  ",
"     ..+++@@             @@+++..     ",
"     ..+++@@             @@+++..     ",
"     ..+++@@             @@+++..     ",
"       ...++@@@       @@@++...       ",
"       ...++@@@       @@@++...       ",
"          ..+++@@   @@+++..          ",
"          ..+++@@   @@+++..          ",
"          ..+++@@   @@+++..          ",
"            ...++@@@++...            ",
"            ...++@@@++...            ",
"               ..+++..               ",
"               ..+++..               ",
"               ..+++..               ",
"                 ...                 ",
"                 ...                 "};
