/* XPM */
static char * invaders_xpm[] = {
"192 60 2 1",
" 	c None",
".	c #FE9867",
"..................      ......            .......     ......      ......      ..................      ............            ..................      ..................      ..................",
"..................      ........          .......     ......      ......      ..................      ............            ..................      ..................      ..................",
"..................      .......           .......     ......      ......      ..................      ............            ..................      ..................      ..................",
"..................      .......           .......     ......      ......      ..................      ............            ..................      ..................      ..................",
"..................      ....... ..        .......     ......      ......      ......      ......      ............            ..................      ..................      ..................",
"..................      ..........        .......     ......      ......      ......      ......      .............           ..................      ..................      ..................",
"      ......            ..........        .......     ......      ......      ......      ......      ......      ......      ......                  ......      ......      ......            ",
"      ......            ...........       .......     ......      ......      ......      ......      ......      ......      ......                  ......      ......      ......            ",
"      ......            ...........       .......     ......      ......      ......      ......      ......      ......      ......                  ......      ......      ......            ",
"      ......            ...........       .......     ......      ......      ......      ......      ......      ......      ......                  ......      ......      ......            ",
"      ......            ..........        .......     ......      ......      ......      ......      ......      ......      ......                  ......      ......      ......            ",
"      ......            ..........        .......     ......      ......      ......      ......      ......      ......      ......                  ......      ......      ......            ",
"      ......            ................  .......     ......      ......      ......      ......      ......      ......      ......                  ......      ......      ......            ",
"      ......            ................  .......     ......      ......      ......      ......      ......      ......      ......                  ......      ......      ......            ",
"      ......            ................  .......     ......      ......      ......      ......      ......      ......      ......                  ......      ......      ......            ",
"      ......            ................  .......     ......      ......      ......      ......      ......      ......      ......                  ......      ......      ......            ",
"      ......            ..............    .......     ......      ......      ......      ......      ......      ......      ......                  ......      ......      ......            ",
"      ......            ..............    .......     ......      ......      ......      ......      ......      ......      ......                  ......      ......      ......            ",
"      ......            ..............    .......     ......      ......      ......      ......      ......      ......      ......                  ......      ......      ......            ",
"      ......            ..............    .......     ......      ......      ......      ......      ......      ......      ......                  ......      ......      ......            ",
"      ......            ..............   ........     ......      ......      ......      ......      ......      ......      ......                  ......      ......      ......            ",
"      ......            ..............   ........     ......      ......      ......      ......      ......      ......      ......                  ......      ......      ......            ",
"      ......            ..............    .......     ......      ......      ......      ......      ......      ......      ......                  ......      ......      ......            ",
"      ......            ..............    .......     ......      ......      ......      ......      ......      ......      ......                  ......      ......      ......            ",
"      ......            ..............    .......     ......      ......      ......      ......      ......      ......      ......                  ......      ......      ......            ",
"      ......            ..............    .......     ......      ......      ......      ......      ......      ......      ......                  ......      ......      ......            ",
"      ......            ..............    ........    ......      ......      ......      ......      ......      ......      ......                  ......      ......      ......            ",
"      ......            ..............    ........    ......      ......      ......      ......      ......      ......      ........                ......      ......      ......            ",
"      ......            ......    ....    ........    ......      ......      ......      ......      ......      ......      ........                ......      ......      ......            ",
"      ......            ......    ...............     ......      ......      ..................      ......      ......      ..................      ............     .      ..................",
"      ......            ......    ..............      ......      ......      ..................      ......      ......      ..................      ............            ..................",
"      ......            ......    ..............      ......      ......      ..................      ......      ......      ..................      ............            ..................",
"      ......            ......    ..............      ......      ......      ..................      ......      ......      ..................      ............            ..................",
"      ......            ......    ..............      ......      ......      ..................      ......      ......      ..................      ............            ..................",
"      ......            ......    ..............      ......      ......      ..................      ......      ......      ..................      ............            ..................",
"      ......            ......    ..............      ......      ......      ..................      ......      ......      ......                  ......      ......                  ......",
"      ......            ......    ..............      ......      ......      ......      ......      ......      ......      ......                  ......      .......                 ......",
"      ......            ......    ..............      ......      ......      ......      ......      ......      ......      ......                  ......     .......                  ......",
"      ......            ......    ..............      ......      ......      ......      ......      ......      ......      ......                  ......      ......                  ......",
"      ......            ......    ..............      ......      ......      ......      ......      ......      ......      ......                  ......      ......                  ......",
"      ......            ......    ...............     ......      ......      ......      ......      ......      ......      ......                  ......      ......                  ......",
"      .......           ......    ..............      ......      ......      ......      ......      ......      ......      ......                  ......      ......                  ......",
"      ......            ......        ...........     ......      ......      ......      ......      ......      ......      ......                  ......      ......                  ......",
"      ......            ......        ...........     ......      ......      ......      ......      ......      ......      ......                  ......      ......                  ......",
"      ......            ......        ...........     ...... ...  ......      ......      ......      ......      ......      ......                  ......      ......                  ......",
"      ......            ......        ...........     ......   .........      ......      ......      ......      ......      ......                  ......      ......                  ......",
"      ......            ......        ...........           ......            ......      ......      ......      ......      ......                  ......      ......                  ......",
"      ......            ......        ..........            ......            ......      ......      ......      ......      ......                  ......      ......                  ......",
"      ......            ......        ..........            ......            ......      ......      ......      ......      ......                  ......      ......                  ......",
"      ......            ......        ..........            ......            ......      ......      ......      ......      ......                  ......      ......                  ......",
"      ......            ......        ..........            ......            ......      ......      ......      ......      ......                  ......      ......                  ......",
"      .......           ......        ..........            ......            ......      ......      ......      ......      ......                  ......      ......                  ......",
"      .......           ......        ..........            ......            ......      ......      ......      ......      ......                  ......      ......                  ......",
"      .......           ......        ..........            ......            ......      ......      ....... . . ......      ......                  ......      ......                  ......",
"..................      ......           .......            ......            ......      ......      .............  .        ..................      .......    .......      ..................",
"..................      ......           ........           ......            ......      ......      .............           ..................      .......    .......      ..................",
"..................      ......            .......           ......            ......      ......      .............           ..................      .......    .......      ..................",
"..................      ......            ......            ......            ......      ......      .............           ..................      .......     ......      ..................",
"..................      ......            ......            ......            ......      ......      ............            ..................      .......     ......      ..................",
"..................      ......            ......            ......            ......      ......      .............           ..................      .......     ......      .................."};
