/* XPM */
static xpm_row_t const lives_xpm[] = {
"53 21 2 1",
" 	c #0A0E30",
".	c #FFFFFF",
"...        .........   ...   ...   ........  ........",
"...        .........   ...   ...   ........  ........",
"...        .........   ...   ...   ........  ........",
"...           ...      ...   ...   ...       ...     ",
"...           ...      ...   ...   ...       ...     ",
"...           ...      ...   ...   ...       ...     ",
"...           ...      ...   ...   ...       ...     ",
"...           ...      ...   ...   ...       ...     ",
"...           ...      ...   ...   ...       ...     ",
"...           ...      ...   ...   ........  ........",
"...           ...      ...   ...   ........  ........",
"...           ...      ...   ...   ........  ........",
"...           ...      ...   ...   ...            ...",
"...           ...      ...   ...   ...            ...",
"...           ...      ...   ...   ...            ...",
"...           ...      ...   ...   ...            ...",
"...           ...      ...   ...   ...            ...",
"...           ...      ...   ...   ...            ...",
"........   .........      ...      ........  ........",
"........   .........      ...      ........  ........",
"........   .........      ...      ........  ........"};
