/* XPM */
static char * lives_xpm[] = {
"53 21 2 1",
" 	c None",
".	c #FFFFFF",
"...        .........   ...   ...   ........  ........",
"...        .........   ...   ...   ........  ........",
"...        .........   ...   ...   ........  ........",
"...           ...      ...   ...   ...       ...     ",
"...           ...      ...   ...   ...       ...     ",
"...           ...      ...   ...   ...       ...     ",
"...           ...      ...   ...   ...       ...     ",
"...           ...      ...   ...   ...       ...     ",
"...           ...      ...   ...   ...       ...     ",
"...           ...      ...   ...   ........  ........",
"...           ...      ...   ...   ........  ........",
"...           ...      ...   ...   ........  ........",
"...           ...      ...   ...   ...            ...",
"...           ...      ...   ...   ...            ...",
"...           ...      ...   ...   ...            ...",
"...           ...      ...   ...   ...            ...",
"...           ...      ...   ...   ...            ...",
"...           ...      ...   ...   ...            ...",
"........   .........      ...      ........  ........",
"........   .........      ...      ........  ........",
"........   .........      ...      ........  ........"};
