/* XPM */
static char * minix_xpm[] = {
"135 60 2 1",
" 	c None",
".	c #FFFFFF",
"........           .........      ..................      ......            ......      ...................      ......      ......    ",
"........           .........      ..................      ......            ......      ...................      ......      ......    ",
"........           .........      ..................      ......            ......      ...................      ......      ......    ",
"...........     ............      ..................      ......            ......      ...................      ......      ......    ",
"...........     ............      ..................      ......            ......      ...................      ......      ......    ",
"...........     ............      ..................      ..........        ......      ...................      ......      ......    ",
"............   .............            ......            ..........        ......             .......           ......      ......    ",
"............   .............            ......            ..........        ......             .......           ......      ......    ",
"............   .............            ......            ..........        ......             .......           ......      ......    ",
"............. ..............            ......            ..........        ......             .......           ......      ......    ",
"............................            ......            ..........        ......             .......           ......      ......    ",
"........  .......  .........            ......            ..........        ......             .......           ......      ......    ",
"........  .......  .........            ......            ..............    ......             .......           ......      ......    ",
"........  .......  .........            ......            ..............    ......             .......           ......      ......    ",
"........  .......  .........            ......            ..............    ......             .......           ......      ......    ",
"........  .......  .........            ......            ..............    ......             .......           ......      ......    ",
"........  .......  .........            ......            ..............    ......             .......           ......      ......    ",
"........  .......  .........            ......            ..............    ......             .......           ......      ......    ",
"........  .......  .........            ......            ..............    ......             .......           ......      ......    ",
"........  .......  .........            ......            ..............    ......             .......           ......      ......    ",
"........    ...    .........            ......            ..............    ......             .......           ......      ......    ",
"........    ...    .........            ......            ..............    ......             .......           ......      ......    ",
"........    ...    .........            ......            ..............    ......             .......           ......      ......    ",
"........    ...    .........            ......            ..............    ......             .......                 ......          ",
"........    ...    .........            ......            ..............    ......             .......                 ......          ",
"........    ...    .........            ......            ..............    ......             .......                 ......          ",
"........           .........            ......            ..............    ......             .......                 ......          ",
"........           .........            ......            ..............    ......             .......                 ......          ",
"........           .........            ......            ......    ....    ......             .......                 ......          ",
"........           .........            ......            ......    ..............             .......                 ......          ",
"........           .........            ......            ......    ..............             .......                 ......          ",
"........           .........            ......            ......    ..............             .......                 ......          ",
"........           .........            ......            ......    ..............             .......                 ......          ",
"........           .........            ......            ......    ..............             .......                 ......          ",
"........           .........            ......            ......    ..............             .......                 ......          ",
"........           .........            ......            ......    ..............             .......                 ......          ",
"........           .........            ......            ......    ..............             .......                 ......          ",
"........           .........            ......            ......    ..............             .......                 ......          ",
"........           .........            ......            ......    ..............             .......                 ......          ",
"........           .........            ......            ......    ..............             .......           ......      ......    ",
"........           .........            ......            ......    ..............             .......           ......      ......    ",
"........           .........            ......            ......    ..............             .......           ......      ......    ",
"........           .........            ......            ......        ..........             .......           ......      ......    ",
"........           .........            ......            ......        ..........             .......           ......      ......    ",
"........           .........            ......            ......        ..........             .......           ......      ......    ",
"........           .........            ......            ......        ..........             .......           ......      ......    ",
"........           .........            ......            ......        ..........             .......           ......      ......    ",
"........           .........            ......            ......        ..........             .......           ......      ......    ",
"........           .........            ......            ......        ..........             .......           ......      ......    ",
"........           .........            ......            ......        ..........             .......           ......      ......    ",
"........           .........            ......            ......        ..........             .......           ......      ......    ",
"........           .........            ......            ......        ..........             .......           ......      ......    ",
"........           .........            ......            ......        ..........             .......           ......      ......    ",
"........           .........            ......            ......        ..........             .......           ......      ......    ",
"........           .........      ..................      ......            ......       ...................     ......      ......    ",
"........           .........      ..................      ......            ......       ...................     ......      ......    ",
"........           .........      ..................      ......            ......       ...................     ......      ......    ",
"........           .........      ..................      ......            ......       ...................     ......      ......    ",
"........           .........      ..................      ......            ......       ...................     ......      ......    ",
"........           .........      ..................      ......            ......       ...................     ......      ......    "};
