/* XPM */
static xpm_row_t const n0_xpm[] = {
"9 21 2 1",
" 	c None",
".	c #FFFFFF",
".........",
".........",
".........",
"...   ...",
"...   ...",
"...   ...",
"...   ...",
"...   ...",
"...   ...",
"...   ...",
"...   ...",
"...   ...",
"...   ...",
"...   ...",
"...   ...",
"...   ...",
"...   ...",
"...   ...",
".........",
".........",
"........."};
