/* XPM */
static char * n0_xpm[] = {
"6 14 2 1",
" 	c None",
".	c #FFFFFF",
"......",
"......",
"..  ..",
"..  ..",
"..  ..",
"..  ..",
"..  ..",
"..  ..",
"..  ..",
"..  ..",
"..  ..",
"..  ..",
"......",
"......"};
