/* XPM */
static char * n1_xpm[] = {
"9 21 2 1",
" 	c None",
".	c #FFFFFF",
"      ...",
"      ...",
"      ...",
"   ......",
"   ......",
"   ......",
"...   ...",
"...   ...",
"...   ...",
"      ...",
"      ...",
"      ...",
"      ...",
"      ...",
"      ...",
"      ...",
"      ...",
"      ...",
"      ...",
"      ...",
"      ..."};
