/* XPM */
static xpm_row_t const n2_xpm[] = {
"9 21 2 1",
" 	c None",
".	c #FFFFFF",
".........",
".........",
".........",
"      ...",
"      ...",
"      ...",
"      ...",
"      ...",
"      ...",
".........",
".........",
".........",
"...      ",
"...      ",
"...      ",
"...      ",
"...      ",
"...      ",
".........",
".........",
"........."};
