/* XPM */
static char * n3_xpm[] = {
"9 21 2 1",
" 	c None",
".	c #FFFFFF",
".........",
".........",
".........",
"      ...",
"      ...",
"      ...",
"      ...",
"      ...",
"      ...",
".........",
".........",
".........",
"      ...",
"      ...",
"      ...",
"      ...",
"      ...",
"      ...",
".........",
".........",
"........."};
