/* XPM */
static char * n4_xpm[] = {
"9 21 2 1",
" 	c None",
".	c #FFFFFF",
"...   ...",
"...   ...",
"...   ...",
"...   ...",
"...   ...",
"...   ...",
"...   ...",
"...   ...",
"...   ...",
".........",
".........",
".........",
"      ...",
"      ...",
"      ...",
"      ...",
"      ...",
"      ...",
"      ...",
"      ...",
"      ..."};
