/* XPM */
static xpm_row_t const n5_xpm[] = {
"9 21 2 1",
" 	c #0A0E30",
".	c #FFFFFF",
".........",
".........",
".........",
"...      ",
"...      ",
"...      ",
"...      ",
"...      ",
"...      ",
".........",
".........",
".........",
"      ...",
"      ...",
"      ...",
"      ...",
"      ...",
"      ...",
".........",
".......  ",
".......  "};
