/* XPM */
static char * n6_xpm[] = {
"6 14 2 1",
" 	c None",
".	c #FFFFFF",
"......",
"......",
"..    ",
"..    ",
"..    ",
"..    ",
"......",
"......",
"..  ..",
"..  ..",
"..  ..",
"..  ..",
"......",
"......"};
