/* XPM */
static char * n6_xpm[] = {
"9 21 2 1",
" 	c None",
".	c #FFFFFF",
".........",
".........",
".........",
"...      ",
"...      ",
"...      ",
"...      ",
"...      ",
"...      ",
".........",
".........",
".........",
"...   ...",
"...   ...",
"...   ...",
"...   ...",
"...   ...",
"...   ...",
".........",
".........",
"........."};
