/* XPM */
static xpm_row_t const n7_xpm[] = {
"6 14 2 1",
" 	c None",
".	c #FFFFFF",
"......",
"......",
"    ..",
"    ..",
"    ..",
"    ..",
"  ..  ",
"  ..  ",
"  ..  ",
"  ..  ",
"  ..  ",
"  ..  ",
"  ..  ",
"  ..  "};
