/* XPM */
static char * n7_xpm[] = {
"9 21 2 1",
" 	c None",
".	c #FFFFFF",
".........",
".........",
".........",
"      ...",
"      ...",
"      ...",
"      ...",
"      ...",
"      ...",
"   ...   ",
"   ...   ",
"   ...   ",
"   ...   ",
"   ...   ",
"   ...   ",
"   ...   ",
"   ...   ",
"   ...   ",
"   ...   ",
"   ...   ",
"   ...   "};
