/* XPM */
static char * score_xpm[] = {
"52 21 2 1",
" 	c None",
".	c #FFFFFF",
"........   .......   ..........   .........  .......",
"........   .......   ..........   .........  .......",
"........   .......   ..........   .........  .......",
"...        ...       ...    ...   ...   ...  ...    ",
"...        ...       ...    ...   ...   ...  ...    ",
"...        ...       ...    ...   ...   ...  ...    ",
"...        ...       ...    ...   ...   ...  ...    ",
"...        ...       ...    ...   ...   ...  ...    ",
"...        ...       ...    ...   ...   ...  ...    ",
"........   ...       ...    ...   ......     .......",
"........   ...       ...    ...   ......     .......",
"........   ...       ...    ...   ......     .......",
"     ...   ...       ...    ...   ...   ...  ...    ",
"     ...   ...       ...    ...   ...   ...  ...    ",
"     ...   ...       ...    ...   ...   ...  ...    ",
"     ...   ...       ...    ...   ...   ...  ...    ",
"     ...   ...       ...    ...   ...   ...  ...    ",
"     ...   ...       ...    ...   ...   ...  ...    ",
"........   .......   ..........   ...   ...  .......",
"........   .......   ..........   ...   ...  .......",
"........   .......   ..........   ...   ...  ......."};
