/* XPM */
static xpm_row_t const score_xpm[] = {
"52 21 2 1",
" 	c #0A0E30",
".	c #FFFFFF",
"........   .......   ..........   .........  .......",
"........   .......   ..........   .........  .......",
"........   .......   ..........   .........  .......",
"...        ...       ...    ...   ...   ...  ...    ",
"...        ...       ...    ...   ...   ...  ...    ",
"...        ...       ...    ...   ...   ...  ...    ",
"...        ...       ...    ...   ...   ...  ...    ",
"...        ...       ...    ...   ...   ...  ...    ",
"...        ...       ...    ...   ...   ...  ...    ",
"........   ...       ...    ...   ......     .......",
"........   ...       ...    ...   ......     .......",
"........   ...       ...    ...   ......     .......",
"     ...   ...       ...    ...   ...   ...  ...    ",
"     ...   ...       ...    ...   ...   ...  ...    ",
"     ...   ...       ...    ...   ...   ...  ...    ",
"     ...   ...       ...    ...   ...   ...  ...    ",
"     ...   ...       ...    ...   ...   ...  ...    ",
"     ...   ...       ...    ...   ...   ...  ...    ",
"........   .......   ..........   ...   ...  .......",
"........   .......   ..........   ...   ...  .......",
"........   .......   ..........   ...   ...  ......."};
