/* XPM */
static xpm_row_t const wave_xpm[] = {
"51 21 2 1",
" 	c #0A0E30",
".	c #FFFFFF",
"...         ...   .........   ...   ...   .........",
"...         ...   .........   ...   ...   .........",
"...         ...   .........   ...   ...   .........",
"...         ...   ...   ...   ...   ...   ...      ",
"...         ...   ...   ...   ...   ...   ...      ",
"...         ...   ...   ...   ...   ...   ...      ",
"...         ...   ...   ...   ...   ...   ...      ",
"...         ...   ...   ...   ...   ...   ...      ",
"...         ...   ...   ...   ...   ...   ...      ",
"...         ...   .........   ...   ...   .........",
"...         ...   .........   ...   ...   .........",
"...         ...   .........   ...   ...   .........",
"...         ...   .........   ...   ...   ...      ",
"...         ...   ...   ...   ...   ...   ...      ",
"...         ...   ...   ...   ...   ...   ...      ",
"...   ...   ...   ...   ...   ...   ...   ...      ",
"...   ...   ...   ...   ...   ...   ...   ...      ",
"...   ...   ...   ...   ...   ...   ...   ...      ",
"   ...   ...      ...   ...      ...      .........",
"   ...   ...      ...   ...      ...      .........",
"   ...   ...      ...   ...      ...      ........."};
